<svg width="25" height="38" viewBox="0 0 25 38" fill="none" xmlns="http://www.w3.org/2000/svg">
<path d="M24.2175 4.10236C23.8932 3.60572 23.4194 3.59146 22.8795 3.5752C22.8183 3.57336 22.7563 3.5715 22.6936 3.5689C22.6458 3.5667 22.5931 3.56755 22.538 3.56843C22.319 3.57195 22.0629 3.57606 21.9339 3.39209C21.7843 3.1788 21.7985 2.7666 21.8102 2.42632C21.8139 2.31879 21.8173 2.21838 21.8153 2.13377C21.7943 1.34329 21.7504 0.503597 21.4453 0.22289C21.2152 0.0122792 20.5268 0.0414566 19.892 0.068365C19.6862 0.077088 19.486 0.0855724 19.3089 0.0855724H5.79596C5.52389 0.0855724 5.23869 0.0634184 4.95847 0.0416509C4.41245 -0.000764251 3.88533 -0.0417118 3.511 0.0855724C2.96775 0.2712 2.93096 1.24664 2.89633 2.16516L2.89446 2.21458C2.86538 2.97285 2.67746 3.55796 2.05465 3.49902C1.33029 3.43158 0.609497 3.41032 0.281987 4.06591C-0.10481 4.84158 -0.0250374 5.65355 0.117847 7.10789C0.138258 7.31564 0.159956 7.53649 0.181766 7.77222H24.4264C24.4403 7.59992 24.455 7.42983 24.4696 7.2625C24.5831 5.95403 24.682 4.81399 24.2175 4.10236Z" fill="#8047F8"/>
<path fill-rule="evenodd" clip-rule="evenodd" d="M2.06987 9.21464C2.44852 14.3394 2.82304 19.4701 3.19757 24.6008L3.1978 24.604C3.40115 27.3898 3.60451 30.1756 3.80853 32.9606H4.58212C4.63483 33.3965 4.69515 33.9347 4.75874 34.5021C4.88783 35.6539 5.03044 36.9263 5.15034 37.7083H5.2359C6.02387 37.42 11.4712 35.0916 11.4736 25.8218C11.4726 25.7953 11.4735 25.7689 11.4762 25.7427H10.1304C10.0653 25.7421 10.0021 25.7203 9.9507 25.6808C9.89927 25.6412 9.86241 25.5861 9.84577 25.5238C9.71463 25.1998 9.60888 24.8664 9.52948 24.5264C8.73777 24.9735 8.10906 25.6563 7.73296 26.4774C7.37594 25.6365 7.32921 24.6982 7.60093 23.8267C7.87266 22.9551 8.44556 22.2056 9.21952 21.7093C9.22949 19.0043 10.2423 16.3968 12.0661 14.3803L12.0946 14.3553C12.1476 14.3095 12.2155 14.284 12.2859 14.2834C12.3266 14.2838 12.3668 14.2924 12.4039 14.3089C12.4415 14.3256 12.4751 14.35 12.5026 14.3803C14.3478 16.3995 15.3552 19.0321 15.3239 21.753C16.1123 22.2356 16.6969 22.9845 16.9691 23.8608C17.2413 24.7371 17.1827 25.6813 16.8042 26.5181C16.4301 25.6957 15.8008 25.0123 15.0076 24.567C14.9592 24.8966 14.8699 25.2189 14.7419 25.5269C14.6977 25.6582 14.6091 25.7427 14.5205 25.7427H13.0853C13.0876 25.7584 13.0892 25.7742 13.0901 25.79L13.0907 25.7937V25.8013C13.0912 25.815 13.0912 25.8287 13.0907 25.8424C13.1104 35.3783 18.902 37.5428 19.3902 37.7083H19.5572C19.5998 36.9572 19.7386 35.9208 19.8739 34.9104C19.9671 34.2141 20.0587 33.5302 20.116 32.9606H20.8985C21.149 29.4526 21.4066 25.9545 21.6642 22.4564L21.6644 22.4545L21.6645 22.4534C21.994 17.9789 22.3235 13.5042 22.6381 9.00867H2.11998C2.06092 9.02021 2.06495 9.11682 2.06987 9.21464ZM12.2859 14.2834L12.2844 14.2834H12.2875L12.2859 14.2834Z" fill="#8047F8"/>
<path d="M24.2175 4.10236C23.8932 3.60572 23.4194 3.59146 22.8795 3.5752C22.8183 3.57336 22.7563 3.5715 22.6936 3.5689C22.6458 3.5667 22.5931 3.56755 22.538 3.56843C22.319 3.57195 22.0629 3.57606 21.9339 3.39209C21.7843 3.1788 21.7985 2.7666 21.8102 2.42632C21.8139 2.31879 21.8173 2.21838 21.8153 2.13377C21.7943 1.34329 21.7504 0.503597 21.4453 0.22289C21.2152 0.0122792 20.5268 0.0414566 19.892 0.068365C19.6862 0.077088 19.486 0.0855724 19.3089 0.0855724H5.79596C5.52389 0.0855724 5.23869 0.0634184 4.95847 0.0416509C4.41245 -0.000764251 3.88533 -0.0417118 3.511 0.0855724C2.96775 0.2712 2.93096 1.24664 2.89633 2.16516L2.89446 2.21458C2.86538 2.97285 2.67746 3.55796 2.05465 3.49902C1.33029 3.43158 0.609497 3.41032 0.281987 4.06591C-0.10481 4.84158 -0.0250374 5.65355 0.117847 7.10789C0.138258 7.31564 0.159956 7.53649 0.181766 7.77222H24.4264C24.4403 7.59992 24.455 7.42983 24.4696 7.2625C24.5831 5.95403 24.682 4.81399 24.2175 4.10236Z" fill="#8047F8"/>
<path fill-rule="evenodd" clip-rule="evenodd" d="M2.06987 9.21464C2.44852 14.3394 2.82304 19.4701 3.19757 24.6008L3.1978 24.604C3.40115 27.3898 3.60451 30.1756 3.80853 32.9606H4.58212C4.63483 33.3965 4.69515 33.9347 4.75874 34.5021C4.88783 35.6539 5.03044 36.9263 5.15034 37.7083H5.2359C6.02387 37.42 11.4712 35.0916 11.4736 25.8218C11.4726 25.7953 11.4735 25.7689 11.4762 25.7427H10.1304C10.0653 25.7421 10.0021 25.7203 9.9507 25.6808C9.89927 25.6412 9.86241 25.5861 9.84577 25.5238C9.71463 25.1998 9.60888 24.8664 9.52948 24.5264C8.73777 24.9735 8.10906 25.6563 7.73296 26.4774C7.37594 25.6365 7.32921 24.6982 7.60093 23.8267C7.87266 22.9551 8.44556 22.2056 9.21952 21.7093C9.22949 19.0043 10.2423 16.3968 12.0661 14.3803L12.0946 14.3553C12.1476 14.3095 12.2155 14.284 12.2859 14.2834C12.3266 14.2838 12.3668 14.2924 12.4039 14.3089C12.4415 14.3256 12.4751 14.35 12.5026 14.3803C14.3478 16.3995 15.3552 19.0321 15.3239 21.753C16.1123 22.2356 16.6969 22.9845 16.9691 23.8608C17.2413 24.7371 17.1827 25.6813 16.8042 26.5181C16.4301 25.6957 15.8008 25.0123 15.0076 24.567C14.9592 24.8966 14.8699 25.2189 14.7419 25.5269C14.6977 25.6582 14.6091 25.7427 14.5205 25.7427H13.0853C13.0876 25.7584 13.0892 25.7742 13.0901 25.79L13.0907 25.7937V25.8013C13.0912 25.815 13.0912 25.8287 13.0907 25.8424C13.1104 35.3783 18.902 37.5428 19.3902 37.7083H19.5572C19.5998 36.9572 19.7386 35.9208 19.8739 34.9104C19.9671 34.2141 20.0587 33.5302 20.116 32.9606H20.8985C21.149 29.4526 21.4066 25.9545 21.6642 22.4564L21.6644 22.4545L21.6645 22.4534C21.994 17.9789 22.3235 13.5042 22.6381 9.00867H2.11998C2.06092 9.02021 2.06495 9.11682 2.06987 9.21464ZM12.2859 14.2834L12.2844 14.2834H12.2875L12.2859 14.2834Z" fill="#8047F8"/>
<path d="M24.2175 4.10236C23.8932 3.60572 23.4194 3.59146 22.8795 3.5752C22.8183 3.57336 22.7563 3.5715 22.6936 3.5689C22.6458 3.5667 22.5931 3.56755 22.538 3.56843C22.319 3.57195 22.0629 3.57606 21.9339 3.39209C21.7843 3.1788 21.7985 2.7666 21.8102 2.42632C21.8139 2.31879 21.8173 2.21838 21.8153 2.13377C21.7943 1.34329 21.7504 0.503597 21.4453 0.22289C21.2152 0.0122792 20.5268 0.0414566 19.892 0.068365C19.6862 0.077088 19.486 0.0855724 19.3089 0.0855724H5.79596C5.52389 0.0855724 5.23869 0.0634184 4.95847 0.0416509C4.41245 -0.000764251 3.88533 -0.0417118 3.511 0.0855724C2.96775 0.2712 2.93096 1.24664 2.89633 2.16516L2.89446 2.21458C2.86538 2.97285 2.67746 3.55796 2.05465 3.49902C1.33029 3.43158 0.609497 3.41032 0.281987 4.06591C-0.10481 4.84158 -0.0250374 5.65355 0.117847 7.10789C0.138258 7.31564 0.159956 7.53649 0.181766 7.77222H24.4264C24.4403 7.59992 24.455 7.42983 24.4696 7.2625C24.5831 5.95403 24.682 4.81399 24.2175 4.10236Z" fill="#8047F8"/>
<path fill-rule="evenodd" clip-rule="evenodd" d="M2.06987 9.21464C2.44852 14.3394 2.82304 19.4701 3.19757 24.6008L3.1978 24.604C3.40115 27.3898 3.60451 30.1756 3.80853 32.9606H4.58212C4.63483 33.3965 4.69515 33.9347 4.75874 34.5021C4.88783 35.6539 5.03044 36.9263 5.15034 37.7083H5.2359C6.02387 37.42 11.4712 35.0916 11.4736 25.8218C11.4726 25.7953 11.4735 25.7689 11.4762 25.7427H10.1304C10.0653 25.7421 10.0021 25.7203 9.9507 25.6808C9.89927 25.6412 9.86241 25.5861 9.84577 25.5238C9.71463 25.1998 9.60888 24.8664 9.52948 24.5264C8.73777 24.9735 8.10906 25.6563 7.73296 26.4774C7.37594 25.6365 7.32921 24.6982 7.60093 23.8267C7.87266 22.9551 8.44556 22.2056 9.21952 21.7093C9.22949 19.0043 10.2423 16.3968 12.0661 14.3803L12.0946 14.3553C12.1476 14.3095 12.2155 14.284 12.2859 14.2834C12.3266 14.2838 12.3668 14.2924 12.4039 14.3089C12.4415 14.3256 12.4751 14.35 12.5026 14.3803C14.3478 16.3995 15.3552 19.0321 15.3239 21.753C16.1123 22.2356 16.6969 22.9845 16.9691 23.8608C17.2413 24.7371 17.1827 25.6813 16.8042 26.5181C16.4301 25.6957 15.8008 25.0123 15.0076 24.567C14.9592 24.8966 14.8699 25.2189 14.7419 25.5269C14.6977 25.6582 14.6091 25.7427 14.5205 25.7427H13.0853C13.0876 25.7584 13.0892 25.7742 13.0901 25.79L13.0907 25.7937V25.8013C13.0912 25.815 13.0912 25.8287 13.0907 25.8424C13.1104 35.3783 18.902 37.5428 19.3902 37.7083H19.5572C19.5998 36.9572 19.7386 35.9208 19.8739 34.9104C19.9671 34.2141 20.0587 33.5302 20.116 32.9606H20.8985C21.149 29.4526 21.4066 25.9545 21.6642 22.4564L21.6644 22.4545L21.6645 22.4534C21.994 17.9789 22.3235 13.5042 22.6381 9.00867H2.11998C2.06092 9.02021 2.06495 9.11682 2.06987 9.21464ZM12.2859 14.2834L12.2844 14.2834H12.2875L12.2859 14.2834Z" fill="#8047F8"/>
<path d="M24.2175 4.10236C23.8932 3.60572 23.4194 3.59146 22.8795 3.5752C22.8183 3.57336 22.7563 3.5715 22.6936 3.5689C22.6458 3.5667 22.5931 3.56755 22.538 3.56843C22.319 3.57195 22.0629 3.57606 21.9339 3.39209C21.7843 3.1788 21.7985 2.7666 21.8102 2.42632C21.8139 2.31879 21.8173 2.21838 21.8153 2.13377C21.7943 1.34329 21.7504 0.503597 21.4453 0.22289C21.2152 0.0122792 20.5268 0.0414566 19.892 0.068365C19.6862 0.077088 19.486 0.0855724 19.3089 0.0855724H5.79596C5.52389 0.0855724 5.23869 0.0634184 4.95847 0.0416509C4.41245 -0.000764251 3.88533 -0.0417118 3.511 0.0855724C2.96775 0.2712 2.93096 1.24664 2.89633 2.16516L2.89446 2.21458C2.86538 2.97285 2.67746 3.55796 2.05465 3.49902C1.33029 3.43158 0.609497 3.41032 0.281987 4.06591C-0.10481 4.84158 -0.0250374 5.65355 0.117847 7.10789C0.138258 7.31564 0.159956 7.53649 0.181766 7.77222H24.4264C24.4403 7.59992 24.455 7.42983 24.4696 7.2625C24.5831 5.95403 24.682 4.81399 24.2175 4.10236Z" fill="#8047F8"/>
<path fill-rule="evenodd" clip-rule="evenodd" d="M2.06987 9.21464C2.44852 14.3394 2.82304 19.4701 3.19757 24.6008L3.1978 24.604C3.40115 27.3898 3.60451 30.1756 3.80853 32.9606H4.58212C4.63483 33.3965 4.69515 33.9347 4.75874 34.5021C4.88783 35.6539 5.03044 36.9263 5.15034 37.7083H5.2359C6.02387 37.42 11.4712 35.0916 11.4736 25.8218C11.4726 25.7953 11.4735 25.7689 11.4762 25.7427H10.1304C10.0653 25.7421 10.0021 25.7203 9.9507 25.6808C9.89927 25.6412 9.86241 25.5861 9.84577 25.5238C9.71463 25.1998 9.60888 24.8664 9.52948 24.5264C8.73777 24.9735 8.10906 25.6563 7.73296 26.4774C7.37594 25.6365 7.32921 24.6982 7.60093 23.8267C7.87266 22.9551 8.44556 22.2056 9.21952 21.7093C9.22949 19.0043 10.2423 16.3968 12.0661 14.3803L12.0946 14.3553C12.1476 14.3095 12.2155 14.284 12.2859 14.2834C12.3266 14.2838 12.3668 14.2924 12.4039 14.3089C12.4415 14.3256 12.4751 14.35 12.5026 14.3803C14.3478 16.3995 15.3552 19.0321 15.3239 21.753C16.1123 22.2356 16.6969 22.9845 16.9691 23.8608C17.2413 24.7371 17.1827 25.6813 16.8042 26.5181C16.4301 25.6957 15.8008 25.0123 15.0076 24.567C14.9592 24.8966 14.8699 25.2189 14.7419 25.5269C14.6977 25.6582 14.6091 25.7427 14.5205 25.7427H13.0853C13.0876 25.7584 13.0892 25.7742 13.0901 25.79L13.0907 25.7937V25.8013C13.0912 25.815 13.0912 25.8287 13.0907 25.8424C13.1104 35.3783 18.902 37.5428 19.3902 37.7083H19.5572C19.5998 36.9572 19.7386 35.9208 19.8739 34.9104C19.9671 34.2141 20.0587 33.5302 20.116 32.9606H20.8985C21.149 29.4526 21.4066 25.9545 21.6642 22.4564L21.6644 22.4545L21.6645 22.4534C21.994 17.9789 22.3235 13.5042 22.6381 9.00867H2.11998C2.06092 9.02021 2.06495 9.11682 2.06987 9.21464ZM12.2859 14.2834L12.2844 14.2834H12.2875L12.2859 14.2834Z" fill="#8047F8"/>
</svg>
